<?xml version="1.0" encoding="UTF-8" standalone="no" ?>
<!DOCTYPE svg PUBLIC "-//W3C//DTD SVG 1.1//EN" "http://www.w3.org/Graphics/SVG/1.1/DTD/svg11.dtd">
<svg xmlns="http://www.w3.org/2000/svg" xmlns:xlink="http://www.w3.org/1999/xlink" version="1.1" width="400" height="400" viewBox="0 0 400 400" xml:space="preserve">
<desc>Created with Fabric.js 3.6.2</desc>
<defs>
</defs>
<g transform="matrix(4.65 0 0 4.65 200 250)" id="Layer_1"  >
<path style="stroke: none; stroke-width: 1; stroke-dasharray: none; stroke-linecap: butt; stroke-dashoffset: 0; stroke-linejoin: miter; stroke-miterlimit: 4; fill: rgb(0,0,0); fill-rule: nonzero; opacity: 1;"  transform=" translate(-21.5, -37.75)" d="M 34.594 26 H 32 v -4 H 0 v 15.5 c 0 8.836 7.163 16 16 16 c 7.272 0 13.401 -4.856 15.347 -11.5 h 3.247 C 39.236 42 43 38.643 43 34 S 39.236 26 34.594 26 z M 16 49.5 c -6.617 0 -12 -5.383 -12 -12 V 26 h 23 v 16 h 0.116 C 25.332 46.393 21.025 49.5 16 49.5 z M 34.594 38 h -2.619 C 31.979 37.832 32 37.669 32 37.5 V 30 h 2.594 C 36.783 30 39 31.374 39 34 S 36.783 38 34.594 38 z" stroke-linecap="round" />
</g>
<g transform="matrix(4.65 0 0 4.65 176.74 120.93)" id="Layer_1"  >
<path style="stroke: none; stroke-width: 1; stroke-dasharray: none; stroke-linecap: butt; stroke-dashoffset: 0; stroke-linejoin: miter; stroke-miterlimit: 4; fill: rgb(0,0,0); fill-rule: nonzero; opacity: 1;"  transform=" translate(-16.5, -10)" d="M 8.646 18.154 c 0.088 0.25 0.166 0.474 0.252 0.672 C 9.234 19.618 9.5 20 9.5 20 s 0.337 -0.413 0.796 -1.013 c 0.107 -0.145 0.227 -0.306 0.355 -0.48 c 0.134 -0.167 0.312 -0.328 0.477 -0.497 c 0.343 -0.333 0.625 -0.701 1.076 -1 c 0.205 -0.157 0.392 -0.321 0.585 -0.479 c 0.222 -0.144 0.452 -0.293 0.688 -0.446 c 0.116 -0.072 0.219 -0.154 0.323 -0.234 l 0.386 -0.223 c 0.27 -0.141 0.484 -0.319 0.75 -0.475 c 0.574 -0.318 1.09 -0.665 1.725 -1.044 c 0.576 -0.376 1.254 -0.811 1.874 -1.26 c 0.67 -0.491 1.303 -0.972 1.959 -1.571 c 0.634 -0.551 1.263 -1.247 1.817 -1.912 c 0.272 -0.362 0.544 -0.738 0.776 -1.114 c 0.116 -0.187 0.232 -0.372 0.347 -0.554 c 0.103 -0.204 0.201 -0.406 0.287 -0.611 c 0.174 -0.409 0.349 -0.791 0.482 -1.172 c 0.096 -0.419 0.189 -0.811 0.251 -1.19 c 0.162 -0.715 0.11 -1.522 0.048 -2.136 c -0.047 -0.307 -0.052 -0.603 -0.144 -0.825 c -0.091 -0.22 -0.172 -0.422 -0.26 -0.605 C 23.76 0.425 23.5 0 23.5 0 s -0.331 0.371 -0.794 1.029 c -0.118 0.165 -0.233 0.348 -0.362 0.547 c -0.139 0.196 -0.317 0.328 -0.482 0.492 c -0.347 0.315 -0.6 0.603 -1.057 0.926 c -0.207 0.156 -0.391 0.322 -0.585 0.481 c -0.24 0.143 -0.46 0.3 -0.688 0.448 c -0.115 0.073 -0.221 0.152 -0.324 0.233 L 18.821 4.38 c -0.269 0.142 -0.486 0.317 -0.751 0.475 c -0.578 0.314 -1.088 0.667 -1.727 1.042 c -0.577 0.375 -1.257 0.806 -1.878 1.255 c -0.671 0.49 -1.305 0.968 -1.963 1.566 c -0.637 0.547 -1.261 1.25 -1.819 1.91 c -0.271 0.364 -0.547 0.737 -0.777 1.113 c -0.117 0.187 -0.232 0.372 -0.347 0.555 c -0.102 0.205 -0.203 0.405 -0.289 0.61 c -0.174 0.409 -0.347 0.792 -0.482 1.173 C 8.692 14.5 8.6 14.894 8.537 15.272 c -0.168 0.739 -0.087 1.465 -0.028 2.062 C 8.557 17.636 8.56 17.903 8.646 18.154 z" stroke-linecap="round" />
</g>
</svg>