<!-- icon666.com - MILLIONS vector ICONS FREE --><svg clip-rule="evenodd" fill-rule="evenodd" stroke-linejoin="round" stroke-miterlimit="2" viewBox="0 0 32 32" width = "15" height = "15" xmlns="http://www.w3.org/2000/svg"><g id="Icon"><path d="m25 30c.552 0 1-.448 1-1v-7c0-1.857-.738-3.637-2.05-4.95-1.313-1.313-3.094-2.05-4.95-2.05-1.931 0-4.069 0-6 0-1.856 0-3.637.737-4.95 2.05-1.312 1.313-2.05 3.093-2.05 4.95v7c0 .552.448 1 1 1zm-1-2v-6c0-1.326-.527-2.598-1.464-3.536-.938-.937-2.21-1.464-3.536-1.464-1.931 0-4.069 0-6 0-1.326 0-2.598.527-3.536 1.464-.937.938-1.464 2.21-1.464 3.536v6zm-8-26c-3.311 0-6 2.689-6 6s2.689 6 6 6 6-2.689 6-6-2.689-6-6-6zm0 2c2.208 0 4 1.792 4 4s-1.792 4-4 4-4-1.792-4-4 1.792-4 4-4z"></path></g></svg>