<?xml version="1.0" encoding="UTF-8" standalone="no" ?>
<!DOCTYPE svg PUBLIC "-//W3C//DTD SVG 1.1//EN" "http://www.w3.org/Graphics/SVG/1.1/DTD/svg11.dtd">
<svg xmlns="http://www.w3.org/2000/svg" xmlns:xlink="http://www.w3.org/1999/xlink" version="1.1" width="400" height="400" viewBox="0 0 400 400" xml:space="preserve">
<desc>Created with Fabric.js 3.6.2</desc>
<defs>
</defs>
<g transform="matrix(6.66 0 0 6.66 200 200)" id="Layer_1"  >
<path style="stroke: none; stroke-width: 1; stroke-dasharray: none; stroke-linecap: butt; stroke-dashoffset: 0; stroke-linejoin: miter; stroke-miterlimit: 4; fill: rgb(0,0,0); fill-rule: evenodd; opacity: 1;"  transform=" translate(-23.99, -24)" d="M 36.992 20.483 v 4.02 l -3.485 2.011 l -2.01 3.482 h -0.511 c 0 0.001 0.001 0.003 0.001 0.004 v 15 c 0 0.004 -0.002 0.007 -0.002 0.011 c 0.004 0.254 -0.089 0.51 -0.283 0.704 s -0.45 0.287 -0.705 0.283 c -0.003 0 -0.006 0.002 -0.01 0.002 c -0.32 0 -0.593 -0.16 -0.775 -0.395 l -5.225 -5.225 l -5.225 5.225 C 18.58 45.84 18.308 46 17.987 46 c -0.004 0 -0.007 -0.002 -0.01 -0.002 c -0.255 0.004 -0.511 -0.089 -0.705 -0.283 c -0.193 -0.194 -0.287 -0.45 -0.283 -0.704 c 0 -0.004 -0.002 -0.007 -0.002 -0.011 V 30 c 0 -0.001 0.001 -0.003 0.001 -0.004 h -0.507 l -2.012 -3.482 l -3.484 -2.011 v -4.02 l -2.011 -3.482 l 2.011 -3.483 V 9.495 l 3.484 -2.013 l 2.012 -3.479 h 4.025 l 3.48 -2.012 l 3.484 2.012 h 4.025 l 2.01 3.479 l 3.485 2.013 v 4.022 L 39 17.001 L 36.992 20.483 z M 18.987 30 v 12.619 l 4.19 -4.19 c 0.032 -0.047 0.053 -0.101 0.095 -0.144 c 0.197 -0.196 0.457 -0.287 0.715 -0.281 c 0.258 -0.006 0.518 0.085 0.715 0.281 c 0.042 0.043 0.062 0.097 0.095 0.144 l 4.19 4.19 V 30 c 0 -0.001 0.001 -0.003 0.001 -0.004 h -1.517 l -3.484 2.013 l -3.48 -2.013 h -1.521 C 18.986 29.997 18.987 29.999 18.987 30 z M 34.987 14.052 v -3.403 l -2.948 -1.703 L 30.34 6.003 h -3.406 l -2.945 -1.701 l -2.943 1.701 H 17.64 l -1.701 2.942 l -2.949 1.703 v 3.404 l -1.701 2.949 l 1.701 2.947 v 3.4 l 2.949 1.702 l 1.701 2.945 h 3.405 l 2.943 1.701 l 2.945 -1.701 h 3.405 l 1.699 -2.945 l 2.949 -1.702 v -3.399 l 1.7 -2.948 L 34.987 14.052 z" stroke-linecap="round" />
</g>
</svg>