<?xml version="1.0" encoding="UTF-8" standalone="no" ?>
<!DOCTYPE svg PUBLIC "-//W3C//DTD SVG 1.1//EN" "http://www.w3.org/Graphics/SVG/1.1/DTD/svg11.dtd">
<svg xmlns="http://www.w3.org/2000/svg" xmlns:xlink="http://www.w3.org/1999/xlink" version="1.1" width="500" height="500" viewBox="0 0 400 400" xml:space="preserve">
<desc>Created with Fabric.js 3.6.2</desc>
<defs>
</defs>
<g transform="matrix(3.13 0 0 3.13 199.84 200.16)" id="Fill-1_2_"  >
<path style="stroke: none; stroke-width: 1; stroke-dasharray: none; stroke-linecap: butt; stroke-dashoffset: 0; stroke-linejoin: miter; stroke-miterlimit: 4; fill: rgb(0,0,0); fill-rule: nonzero; opacity: 1;"  transform=" translate(-3.95, 497.95)" d="M 9 -491.8 c 4.2 -3.2 10.5 -8.1 10.5 -25.9 v -1.4 h -31.1 v 1.4 c 0 17.9 6.3 22.7 10.5 25.9 c 2.4 1.9 3.6 2.9 3.6 5.1 v 4.3 c -2.3 0.2 -4.5 1.1 -5.3 2.8 h -3.2 c -1.6 0 -2.8 1.3 -2.8 2.8 h 25.4 c 0 -1.6 -1.3 -2.8 -2.8 -2.8 h -3.2 c -0.8 -1.7 -3 -2.5 -5.3 -2.8 v -4.3 C 5.4 -489 6.6 -490 9 -491.8 L 9 -491.8 z M 4 -491 c -0.9 -1.2 -2.1 -2.1 -3.3 -3 c -3.8 -3 -9.1 -7 -9.4 -22.3 h 25.4 c -0.3 15.3 -5.5 19.3 -9.4 22.3 C 6.1 -493.1 4.9 -492.2 4 -491 L 4 -491 z" stroke-linecap="round" />
</g>
<g transform="matrix(3.13 0 0 3.13 149.69 175.78)" id="Fill-2_1_"  >
<path style="stroke: none; stroke-width: 1; stroke-dasharray: none; stroke-linecap: butt; stroke-dashoffset: 0; stroke-linejoin: miter; stroke-miterlimit: 4; fill: rgb(0,0,0); fill-rule: nonzero; opacity: 1;"  transform=" translate(12.1, 505.75)" d="M -4.7 -495.2 c -0.2 0 -15.3 -3.2 -15.3 -19.7 v -1.4 h 9.9 v 2.8 h -7 c 0.8 13 12.8 15.5 12.9 15.6 L -4.7 -495.2" stroke-linecap="round" />
</g>
<g transform="matrix(3.13 0 0 3.13 250.16 175.63)" id="Fill-3_2_"  >
<path style="stroke: none; stroke-width: 1; stroke-dasharray: none; stroke-linecap: butt; stroke-dashoffset: 0; stroke-linejoin: miter; stroke-miterlimit: 4; fill: rgb(0,0,0); fill-rule: nonzero; opacity: 1;"  transform=" translate(-20.05, 505.8)" d="M 12.7 -495.2 l -0.6 -2.8 c 0.5 -0.1 12.1 -2.6 12.9 -15.6 h -7 v -2.8 H 28 v 1.4 C 28 -498.4 12.9 -495.2 12.7 -495.2" stroke-linecap="round" />
</g>
</svg>