<?xml version="1.0" encoding="UTF-8" standalone="no" ?>
<!DOCTYPE svg PUBLIC "-//W3C//DTD SVG 1.1//EN" "http://www.w3.org/Graphics/SVG/1.1/DTD/svg11.dtd">
<svg xmlns="http://www.w3.org/2000/svg" xmlns:xlink="http://www.w3.org/1999/xlink" version="1.1" width="30" height="30" viewBox="0 0 400 400" xml:space="preserve">
<desc>Created with Fabric.js 3.6.2</desc>
<defs>
</defs>
<g transform="matrix(8.33 0 0 8.33 200 200)" id="Icons"  >
<path style="stroke: none; stroke-width: 1; stroke-dasharray: none; stroke-linecap: butt; stroke-dashoffset: 0; stroke-linejoin: miter; stroke-miterlimit: 4; fill: rgb(26,26,31); fill-rule: nonzero; opacity: 1;"  transform=" translate(-12, -12)" d="M 2 10 c 0 8.491 9.126 13.658 9.514 13.874 a 1 1 0 0 0 0.972 0 C 12.874 23.658 22 18.491 22 10 A 10 10 0 0 0 2 10 Z M 12 2 a 8.009 8.009 0 0 1 8 8 c 0 6.274 -6.2 10.68 -8 11.83 C 10.2 20.68 4 16.274 4 10 A 8.009 8.009 0 0 1 12 2 Z" stroke-linecap="round" />
</g>
<g transform="matrix(8.33 0 0 8.33 200 183.33)" id="Icons"  >
<path style="stroke: none; stroke-width: 1; stroke-dasharray: none; stroke-linecap: butt; stroke-dashoffset: 0; stroke-linejoin: miter; stroke-miterlimit: 4; fill: rgb(26,26,31); fill-rule: nonzero; opacity: 1;"  transform=" translate(-12, -10)" d="M 12 15 a 5 5 0 1 0 -5 -5 A 5.006 5.006 0 0 0 12 15 Z m 0 -8 a 3 3 0 1 1 -3 3 A 3 3 0 0 1 12 7 Z" stroke-linecap="round" />
</g>
</svg>