<?xml version="1.0" encoding="UTF-8" standalone="no" ?>
<!DOCTYPE svg PUBLIC "-//W3C//DTD SVG 1.1//EN" "http://www.w3.org/Graphics/SVG/1.1/DTD/svg11.dtd">
<svg xmlns="http://www.w3.org/2000/svg" xmlns:xlink="http://www.w3.org/1999/xlink" version="1.1" width="400" height="400" viewBox="0 0 400 400" xml:space="preserve">
<desc>Created with Fabric.js 3.6.2</desc>
<defs>
</defs>
<g transform="matrix(0.53 0 0 0.53 200 200)" id="Layer_1"  >
<path style="stroke: none; stroke-width: 1; stroke-dasharray: none; stroke-linecap: butt; stroke-dashoffset: 0; stroke-linejoin: miter; stroke-miterlimit: 4; fill: rgb(0,0,0); fill-rule: nonzero; opacity: 1;"  transform=" translate(-256, -256)" d="M 412.51 340.85 l -0.15 -0.13 a 3.8 3.8 0 0 0 -0.37 -0.33 l -0.26 -0.21 l -0.35 -0.26 l -0.33 -0.21 l -0.33 -0.19 a 3 3 0 0 0 -0.4 -0.21 l -0.29 -0.14 l -0.47 -0.18 l -0.18 -0.07 l -43.48 -14.5 L 297.48 256 l 68.45 -68.45 l 43.45 -14.48 l 0.18 -0.07 l 0.47 -0.18 l 0.29 -0.14 l 0.4 -0.2 l 0.33 -0.2 a 3.53 3.53 0 0 0 0.32 -0.21 a 3.18 3.18 0 0 0 0.37 -0.27 l 0.25 -0.2 c 0.13 -0.1 0.25 -0.22 0.37 -0.33 l 0.15 -0.13 L 442.69 141 a 8 8 0 0 0 0 -11.31 L 382.34 69.31 a 8 8 0 0 0 -11.31 0 L 340.85 99.49 l -0.13 0.15 l -0.33 0.36 l -0.21 0.27 c -0.09 0.11 -0.18 0.23 -0.26 0.35 a 4 4 0 0 0 -0.22 0.34 l -0.18 0.31 c -0.08 0.14 -0.15 0.28 -0.22 0.42 l -0.12 0.27 c -0.07 0.17 -0.14 0.33 -0.2 0.5 l -0.06 0.16 l -14.5 43.47 L 256 214.52 l -68.44 -68.44 l -14.48 -43.46 c 0 -0.06 -0.05 -0.11 -0.07 -0.17 s -0.12 -0.32 -0.18 -0.48 s -0.09 -0.19 -0.14 -0.28 a 3.17 3.17 0 0 0 -0.21 -0.41 c -0.06 -0.11 -0.12 -0.22 -0.19 -0.33 a 3.53 3.53 0 0 0 -0.21 -0.32 c -0.08 -0.13 -0.17 -0.25 -0.26 -0.37 l -0.21 -0.25 c -0.1 -0.13 -0.22 -0.25 -0.33 -0.37 l -0.13 -0.15 L 141 69.31 a 8.48 8.48 0 0 0 -1 -0.86 l -0.22 -0.16 c -0.08 -0.06 -0.17 -0.1 -0.26 -0.16 s -0.28 -0.17 -0.42 -0.24 a 7.89 7.89 0 0 0 -3.5 -0.91 h -0.22 l -0.44 0 l -0.33 0 l -0.26 0 a 7.7 7.7 0 0 0 -2 0.51 l -0.06 0 a 7.66 7.66 0 0 0 -1.73 1 c -0.29 0.23 -0.58 0.46 -0.86 0.73 L 69.31 129.66 a 8 8 0 0 0 0 11.31 l 30.18 30.18 l 0.15 0.13 a 3.8 3.8 0 0 0 0.37 0.33 l 0.09 0.09 l 0.17 0.12 l 0.35 0.26 l 0.33 0.21 l 0.33 0.19 a 3.84 3.84 0 0 0 0.4 0.21 l 0.29 0.14 l 0.47 0.18 l 0.18 0.07 l 43.48 14.5 L 214.52 256 l -68.44 68.44 l -43.46 14.48 l -0.18 0.07 l -0.46 0.18 l -0.31 0.14 l -0.39 0.2 l -0.34 0.2 c -0.1 0.07 -0.21 0.13 -0.31 0.21 a 3.18 3.18 0 0 0 -0.37 0.27 l -0.25 0.2 c -0.13 0.1 -0.25 0.22 -0.37 0.33 l -0.15 0.13 L 69.31 371 a 8 8 0 0 0 0 11.31 l 60.35 60.35 a 8 8 0 0 0 11.31 0 l 30.1 -30.1 h 0 l 0.07 -0.07 a 7.91 7.91 0 0 0 0.66 -0.77 a 1.77 1.77 0 0 0 0.16 -0.22 a 7.72 7.72 0 0 0 1.07 -2 l 0 -0.09 l 14.49 -43.46 L 256 297.48 l 68.44 68.44 l 14.48 43.46 l 0 0.09 a 7.72 7.72 0 0 0 1.07 2 c 0.05 0.07 0.1 0.15 0.16 0.22 a 7.91 7.91 0 0 0 0.66 0.77 l 0.07 0.06 l 0 0 L 371 442.69 c 0.2 0.19 0.4 0.37 0.61 0.54 a 8 8 0 0 0 10.71 -0.54 l 60.34 -60.35 a 8 8 0 0 0 0 -11.31 Z m -35.82 84.86 l -18.87 -18.86 l 49 -49 l 18.86 18.87 Z m -12.91 -85.13 L 392 350 l -42 42 l -9.42 -28.27 Z M 376.69 86.29 l 49 49 l -18.86 18.87 l -49 -49 Z M 350 120 l 42 42 l -28.28 9.42 l -23.18 -23.18 Z M 148.23 171.42 L 120 162 l 42 -42 l 9.42 28.27 Z M 135.31 86.29 l 18.87 18.86 l -49 49 L 86.29 135.31 Z m 26.4 94.27 l 18.85 -18.85 l 64.12 64.12 l -18.85 18.85 Z m 69.78 81.1 h 0 l 30.17 -30.16 h 0 l 69.77 -69.77 l 18.86 18.86 l -69.77 69.77 h 0 L 254.3 276.56 l -73.73 73.73 l -18.86 -18.86 Z m -96.18 164 l -49 -49 l 18.86 -18.87 l 49 49 Z M 162 392 l -42 -42 l 28.28 -9.42 l 23.18 23.18 Z M 286.17 267.32 l 64.12 64.12 l -18.85 18.85 l -64.12 -64.12 Z" stroke-linecap="round" />
</g>
</svg>