<svg xmlns="http://www.w3.org/2000/svg" xmlns:xlink="http://www.w3.org/1999/xlink" version="1.1" width="50" height="50" viewBox="0 0 400 400" xml:space="preserve">
<defs>
</defs>
<g transform="matrix(4.76 0 0 4.76 200 200)" id="Layer_1"  >
<path style="stroke: none; stroke-width: 1; stroke-dasharray: none; stroke-linecap: butt; stroke-dashoffset: 0; stroke-linejoin: miter; stroke-miterlimit: 4; fill: rgb(0,0,0); fill-rule: evenodd; opacity: 1;"  transform=" translate(-24, -24)" d="M 44.602 23.775 L 21.806 46.571 c -0.032 0.048 -0.053 0.102 -0.095 0.144 c -0.197 0.196 -0.457 0.287 -0.715 0.281 c -0.258 0.006 -0.518 -0.085 -0.715 -0.281 c -0.042 -0.042 -0.062 -0.096 -0.095 -0.144 L 3.425 29.81 c -0.048 -0.032 -0.101 -0.053 -0.144 -0.095 C 3.084 29.518 2.995 29.258 3 29 c -0.006 -0.258 0.084 -0.518 0.281 -0.715 c 0.043 -0.042 0.096 -0.062 0.144 -0.095 L 26.221 5.395 C 26.404 5.16 26.676 5 26.996 5 h 0.021 c 0.002 0 0.004 0 0.006 0 h 4.029 c 0.133 -1.502 0.746 -2.82 1.67 -3.683 l 0.016 0.018 C 32.934 1.128 33.201 1 33.496 1 c 0.592 0 1.072 0.512 1.072 1.143 c 0 0.375 -0.18 0.691 -0.441 0.899 C 33.648 3.484 33.307 4.181 33.193 5 h 4.775 c 0.002 0 0.004 0 0.008 0 h 0.02 c 0.32 0 0.594 0.16 0.775 0.395 l 5.83 5.83 c 0.234 0.183 0.395 0.456 0.395 0.776 v 0.021 c 0 0.002 0 0.004 0 0.006 v 10.945 c 0 0.002 0 0.004 0 0.007 V 23 C 44.996 23.32 44.836 23.593 44.602 23.775 z M 34.254 16.666 C 34.061 16.872 33.793 17 33.496 17 c -0.592 0 -1.07 -0.512 -1.07 -1.143 c 0 -0.375 0.18 -0.691 0.441 -0.9 c 0.248 -0.229 0.451 -0.537 0.617 -0.883 c -0.855 0.228 -1.488 1 -1.488 1.925 c 0 1.104 0.896 2 2 2 c 1.105 0 2 -0.896 2 -2 c 0 -0.473 -0.17 -0.901 -0.445 -1.244 C 34.936 16.302 34.254 16.666 34.254 16.666 z M 42.996 12.381 L 37.615 7 h -4.213 c 0.174 0.444 0.424 0.822 0.725 1.1 l 0 0 c 0.041 0.033 0.092 0.053 0.127 0.092 l 0.018 -0.018 c 1.041 0.973 1.725 2.508 1.725 4.254 c 0 0.042 -0.01 0.079 -0.012 0.12 c 1.197 0.691 2.012 1.97 2.012 3.452 c 0 2.209 -1.791 4 -4 4 s -4 -1.791 -4 -4 c 0 -2.147 1.695 -3.885 3.82 -3.982 c -0.09 -0.888 -0.441 -1.648 -0.949 -2.118 c -0.041 -0.033 -0.092 -0.053 -0.129 -0.092 l -0.016 0.018 C 31.979 9.131 31.43 8.141 31.17 7 h -3.793 l -22 22 l 15.619 15.619 l 22 -22 V 12.381 z M 14.282 27.285 c 0.382 -0.381 1 -0.381 1.381 0 l 7.049 7.049 c 0.381 0.381 0.381 0.999 0 1.381 c -0.381 0.381 -1 0.381 -1.381 0 l -7.049 -7.049 C 13.901 28.285 13.901 27.667 14.282 27.285 z M 18.282 23.285 c 0.382 -0.381 1 -0.381 1.381 0 l 7.048 7.049 c 0.381 0.381 0.381 0.999 0 1.381 c -0.381 0.381 -1 0.381 -1.381 0 l -7.048 -7.049 C 17.901 24.285 17.901 23.667 18.282 23.285 z" stroke-linecap="round" />
</g>
</svg>